<svg xmlns="http://www.w3.org/2000/svg" width="1080" height="720" viewBox="0 0 1080 720" font-family="IBM Plex Sans, system-ui, sans-serif">
  
  <rect class="gf-bg" x="0" y="0" width="1080" height="720" fill="#FFFFFF"></rect>

  
  <text class="gf-ink" x="60" y="52" font-size="20" font-weight="700" fill="#090B0C">Hold gesture physics — arm · slide-to-lock · slide-to-cancel</text>
  <text class="gf-muted" x="60" y="76" font-size="13" fill="#67787C">§6.2 + §7.1 · the mic being open is the truth condition; recording UI appears only on status == recording. Every gesture has a visible alternative.</text>

  
  
  <rect class="gf-surface2 gs-hairline" x="278" y="150" width="44" height="44" rx="10" fill="#F1F3F3" stroke="#E3E7E8"></rect>
  <g class="gs-ink" transform="translate(300,172)" stroke="#090B0C" stroke-width="1.8" fill="none" stroke-linecap="round" stroke-linejoin="round">
    <rect x="-7" y="-2" width="14" height="11" rx="2"></rect>
    <path d="M-4 -2 v-3 a4 4 0 0 1 8 0 v3"></path>
  </g>
  
  <line class="gs-hairline-strong" x1="236" y1="228" x2="364" y2="228" stroke="#9CA8AB" stroke-width="1.5" stroke-dasharray="5 4"></line>
  <text class="gf-muted" x="372" y="232" font-size="12" fill="#67787C">lock threshold</text>

  
  <line class="gs-hairline-strong" x1="300" y1="466" x2="300" y2="200" stroke="#9CA8AB" stroke-width="1.5" stroke-dasharray="4 5"></line>
  <path class="gs-brand" d="M300 262 l-7 10 h14 Z" fill="#007A55"></path>
  <text class="gf-brand" x="312" y="300" font-size="12" font-weight="600" fill="#007A55">slide up → LOCK</text>
  <text class="gf-muted" x="312" y="317" font-size="11" fill="#67787C">hands-free · haptics.selection</text>

  
  <text class="gf-ink" x="392" y="160" font-size="12" font-weight="600" fill="#090B0C">locked → buttons</text>
  <circle class="gf-danger-soft gs-hairline" cx="404" cy="184" r="17" fill="#FFE2E2" stroke="#E3E7E8"></circle>
  <g class="gs-danger-text" transform="translate(404,184)" stroke="#C10007" stroke-width="1.5" fill="none" stroke-linecap="round" stroke-linejoin="round"><path d="M-6 -3 h12"></path><path d="M-4.5 -3 v8 a1.5 1.5 0 0 0 1.5 1.5 h6 a1.5 1.5 0 0 0 1.5 -1.5 v-8"></path><path d="M-2 -3 v-1.4 a1 1 0 0 1 1 -1 h2 a1 1 0 0 1 1 1 v1.4"></path></g>
  <circle class="gf-surface2 gs-hairline" cx="452" cy="184" r="17" fill="#F1F3F3" stroke="#E3E7E8"></circle>
  <g class="gs-ink" transform="translate(452,184)" stroke="#090B0C" stroke-width="1.8" stroke-linecap="round"><path d="M-3 -5 v10 M3 -5 v10"></path></g>
  <circle class="gf-brand" cx="500" cy="184" r="17" fill="#007A55"></circle>
  <path d="M492 176 l16 8 -16 8 4 -8 Z" fill="#ECFDF5"></path>
  <text class="gf-muted" x="392" y="218" font-size="11" fill="#67787C">delete · pause/resume · send</text>

  
  <rect class="gf-danger-soft gs-hairline" x="90" y="452" width="44" height="44" rx="10" fill="#FFE2E2" stroke="#E3E7E8"></rect>
  <g class="gs-danger-text" transform="translate(112,474)" stroke="#C10007" stroke-width="1.7" fill="none" stroke-linecap="round" stroke-linejoin="round"><path d="M-7 -4 h14"></path><path d="M-5.5 -4 v10 a1.7 1.7 0 0 0 1.7 1.7 h7.6 a1.7 1.7 0 0 0 1.7 -1.7 v-10"></path><path d="M-2.5 -4 v-1.6 a1.2 1.2 0 0 1 1.2 -1.2 h2.6 a1.2 1.2 0 0 1 1.2 1.2 v1.6"></path></g>
  
  <line class="gs-hairline-strong" x1="196" y1="430" x2="196" y2="518" stroke="#9CA8AB" stroke-width="1.5" stroke-dasharray="5 4"></line>
  <text class="gf-muted" x="196" y="536" font-size="12" fill="#67787C" text-anchor="middle">cancel threshold</text>

  
  <line class="gs-hairline-strong" x1="266" y1="474" x2="144" y2="474" stroke="#9CA8AB" stroke-width="1.5" stroke-dasharray="4 5"></line>
  <path class="gs-danger" d="M182 474 l10 -7 v14 Z" fill="#E7000B"></path>
  <text class="gf-danger" x="150" y="418" font-size="12" font-weight="600" fill="#E7000B">slide to leading edge → CANCEL</text>
  <text class="gf-muted" x="150" y="435" font-size="11" fill="#67787C">trash tracks the drag · haptics.warning</text>

  
  <circle class="gf-surface gs-hairline-strong" cx="300" cy="474" r="34" fill="#FFFFFF" stroke="#9CA8AB" stroke-width="2"></circle>
  <circle cx="300" cy="474" r="18" fill="#FB2C36"></circle>
  <text class="gf-ink" x="300" y="540" font-size="12" font-weight="600" fill="#090B0C" text-anchor="middle">press &amp; hold to arm</text>

  
  <rect class="gf-surface2 gs-hairline" x="356" y="560" width="188" height="40" rx="20" fill="#F1F3F3" stroke="#E3E7E8"></rect>
  <circle cx="378" cy="580" r="5" fill="#FB2C36"></circle>
  <text class="gf-ink" x="392" y="585" font-size="13" font-weight="600" fill="#090B0C">0:07</text>
  <g class="gs-ink" stroke="#090B0C" stroke-width="2.4" stroke-linecap="round" opacity="0.75">
    <line x1="436" y1="576" x2="436" y2="584"></line>
    <line x1="444" y1="571" x2="444" y2="589"></line>
    <line x1="452" y1="574" x2="452" y2="586"></line>
    <line x1="460" y1="568" x2="460" y2="592"></line>
    <line x1="468" y1="573" x2="468" y2="587"></line>
    <line x1="476" y1="577" x2="476" y2="583"></line>
    <line x1="484" y1="571" x2="484" y2="589"></line>
    <line x1="492" y1="575" x2="492" y2="585"></line>
  </g>
  <text class="gf-muted" x="356" y="626" font-size="11" fill="#67787C">recording UI (timer + live waveform + pulsing dot)</text>
  <text class="gf-muted" x="356" y="642" font-size="11" fill="#67787C">appears only when the mic is actually open</text>

  <text class="gf-ink" x="60" y="676" font-size="13" font-weight="600" fill="#090B0C">Release while unlocked → stop &amp; send.</text>
  <text class="gf-muted" x="322" y="676" font-size="12" fill="#67787C">A11y: assistive tech gets a double-tap toggle — no hold requirement.</text>

  
  <line class="gs-hairline" x1="620" y1="120" x2="620" y2="680" stroke="#E3E7E8" stroke-width="1"></line>

  
  <text class="gf-ink" x="660" y="150" font-size="15" font-weight="700" fill="#090B0C">One learned gesture, two contexts</text>

  
  <text class="gf-ink" x="660" y="188" font-size="13" font-weight="600" fill="#090B0C">MonoVoiceNoteButton · §6.2</text>
  <rect class="gf-bg gs-hairline" x="660" y="200" width="360" height="96" rx="14" fill="#FFFFFF" stroke="#E3E7E8"></rect>
  <circle cx="686" cy="248" r="5" fill="#FB2C36"></circle>
  <text class="gf-ink" x="700" y="253" font-size="13" font-weight="600" fill="#090B0C">0:07</text>
  <g class="gs-muted" stroke="#67787C" stroke-width="2.2" stroke-linecap="round" opacity="0.7">
    <line x1="742" y1="244" x2="742" y2="252"></line><line x1="750" y1="239" x2="750" y2="257"></line>
    <line x1="758" y1="242" x2="758" y2="254"></line><line x1="766" y1="236" x2="766" y2="260"></line>
    <line x1="774" y1="241" x2="774" y2="255"></line><line x1="782" y1="245" x2="782" y2="251"></line>
  </g>
  <text class="gf-muted" x="806" y="253" font-size="12" fill="#67787C">‹ slide to cancel</text>
  <circle class="gf-brand" cx="990" cy="248" r="20" fill="#007A55"></circle>
  <g stroke="#ECFDF5" stroke-width="1.8" fill="none" stroke-linecap="round" stroke-linejoin="round">
    <rect x="986" y="239" width="8" height="13" rx="4"></rect>
    <path d="M983 248 a7 7 0 0 0 14 0"></path>
    <path d="M990 255 v4 M986 259 h8"></path>
  </g>

  
  <text class="gf-ink" x="660" y="336" font-size="13" font-weight="600" fill="#090B0C">MonoCameraShutter · §7.1</text>
  <rect x="660" y="348" width="360" height="230" rx="14" fill="#000000"></rect>
  <rect x="660" y="348" width="360" height="230" rx="14" fill="#161B1D"></rect>
  
  <g class="" transform="translate(840,392)" stroke="#FFFFFF" stroke-opacity="0.6" stroke-width="1.6" fill="none" stroke-linecap="round" stroke-linejoin="round">
    <rect x="-6" y="-1" width="12" height="9" rx="2"></rect>
    <path d="M-3.5 -1 v-2.5 a3.5 3.5 0 0 1 7 0 v2.5"></path>
    <path d="M0 -18 v8 M-4 -14 l4 -4 4 4"></path>
  </g>
  
  <circle cx="840" cy="512" r="34" fill="none" stroke="#FFFFFF" stroke-width="4"></circle>
  <path d="M840 478 A34 34 0 0 1 872 534" fill="none" stroke="#FB2C36" stroke-width="4" stroke-linecap="round"></path>
  <rect x="826" y="498" width="28" height="28" rx="6" fill="#FB2C36"></rect>
  <text x="840" y="566" font-size="11" fill="#FFFFFF" fill-opacity="0.75" text-anchor="middle">hold records · ring = live progress</text>
  <rect class="gs-hairline" x="660" y="348" width="360" height="230" rx="14" fill="none" stroke="#E3E7E8" stroke-width="1.5"></rect>

  <text class="gf-muted" x="660" y="612" font-size="12" fill="#67787C">Same arm / lock / cancel physics; the inner circle morphs</text>
  <text class="gf-muted" x="660" y="630" font-size="12" fill="#67787C">to a rounded-square while recording (spring.effects.default).</text>
  <text class="gf-muted" x="660" y="648" font-size="12" fill="#67787C">Pointer: click toggles recording, no hold; Space/Enter activate.</text>
</svg>